<svg width="164" height="30" viewBox="0 0 164 30" fill="none" xmlns="http://www.w3.org/2000/svg">
<path d="M5 5.00433L5.38651 5.02973L5.77303 5.07775L6.15954 5.14828L6.54606 5.24118L6.93257 5.35622L7.31909 5.49317L7.7056 5.65171L8.09212 5.83149L8.47863 6.03212L8.86515 6.25314L9.25166 6.49407L9.63818 6.75437L10.0247 7.03347L10.4112 7.33073L10.7977 7.64552L11.1842 7.97711L11.5708 8.32479L11.9573 8.68777L12.3438 9.06526L12.7303 9.45641L13.1168 9.86035L13.5033 10.2762L13.8898 10.703L14.2764 11.1398L14.6629 11.5857L15.0494 12.0397L15.4359 12.5007L15.8224 12.9678L16.2089 13.4399L16.5954 13.9159L16.982 14.3948L17.3685 14.8755L17.755 15.357L18.1415 15.8382L18.528 16.318L18.9145 16.7954L19.3011 17.2692L19.6876 17.7386L20.0741 18.2023L20.4606 18.6594L20.8471 19.1089L21.2336 19.5497L21.6201 19.9809L22.0067 20.4016L22.3932 20.8107L22.7797 21.2074L23.1662 21.5908L23.5527 21.9601L23.9392 22.3144L24.3257 22.653L24.7123 22.975L25.0988 23.2799L25.4853 23.5668L25.8718 23.8352L26.2583 24.0845L26.6448 24.3141L27.0314 24.5235L27.4179 24.7122L27.8044 24.8799L28.1909 25.0261L28.5774 25.1505L28.9639 25.2529L29.3504 25.333L29.737 25.3907L30.1235 25.4257L30.51 25.4382L30.8965 25.4279L31.283 25.3949L31.6695 25.3394L32.056 25.2614L32.4426 25.1611L32.8291 25.0387L33.2156 24.8945L33.6021 24.7289L33.9886 24.5421L34.3751 24.3346L34.7617 24.1069L35.1482 23.8594L35.5347 23.5928L35.9212 23.3076L36.3077 23.0044L36.6942 22.6839L37.0807 22.3469L37.4673 21.994L37.8538 21.6261L38.2403 21.244L38.6268 20.8485L39.0133 20.4405L39.3998 20.0209L39.7863 19.5906L40.1729 19.1506L40.5594 18.7019L40.9459 18.2455L41.3324 17.7824L41.7189 17.3135L42.1054 16.84L42.492 16.3629L42.8785 15.8833L43.265 15.4022L43.6515 14.9207L44.038 14.4398L44.4245 13.9607L44.811 13.4844L45.1976 13.0119L45.5841 12.5443L45.9706 12.0827L46.3571 11.628L46.7436 11.1813L47.1301 10.7436L47.5166 10.3158L47.9032 9.8989L48.2897 9.4938L48.6762 9.10142L49.0627 8.72261L49.4492 8.35823L49.8357 8.00909L50.2223 7.67595L50.6088 7.35956L50.9953 7.06061L51.3818 6.77978L51.7683 6.51769L52.1548 6.27492L52.5413 6.05201L52.9279 5.84945L53.3144 5.66769L53.7009 5.50714L54.0874 5.36816L54.4739 5.25104L54.8604 5.15606L55.2469 5.08342L55.6335 5.03328L56.02 5.00575L56.4065 5.00091L56.793 5.01875L57.1795 5.05923L57.566 5.12228L57.9526 5.20774L58.3391 5.31543L58.7256 5.44511L59.1121 5.59649L59.4986 5.76923L59.8851 5.96296L60.2716 6.17723L60.6582 6.41158L61.0447 6.66549L61.4312 6.93838L61.8177 7.22967L62.2042 7.53869L62.5907 7.86476L62.9772 8.20716L63.3638 8.56513L63.7503 8.93787L64.1368 9.32456L64.5233 9.72434L64.9098 10.1363L65.2963 10.5596L65.6829 10.9932L66.0694 11.4362L66.4559 11.8876L66.8424 12.3463L67.2289 12.8115L67.6154 13.282L68.0019 13.7568L68.3885 14.2349L68.775 14.7151L69.1615 15.1965L69.548 15.6779L69.9345 16.1583L70.321 16.6366L70.7075 17.1117L71.0941 17.5827L71.4806 18.0484L71.8671 18.5078L72.2536 18.96L72.6401 19.4038L73.0266 19.8383L73.4132 20.2626L73.7997 20.6756L74.1862 21.0766L74.5727 21.4646L74.9592 21.8387L75.3457 22.198L75.7322 22.5419L76.1188 22.8696L76.5053 23.1802L76.8918 23.4732L77.2783 23.7479L77.6648 24.0036L78.0513 24.2398L78.4378 24.456L78.8244 24.6516L79.2109 24.8264L79.5974 24.9798L79.9839 25.1115L80.3704 25.2213L80.7569 25.3088L81.1435 25.374L81.53 25.4166L81.9165 25.4365L82.303 25.4338L82.6895 25.4084L83.076 25.3604L83.4625 25.2899L83.8491 25.197L84.2356 25.0819L84.6221 24.945L85.0086 24.7864L85.3951 24.6067L85.7816 24.406L86.1681 24.185L86.5547 23.9441L86.9412 23.6838L87.3277 23.4047L87.7142 23.1074L88.1007 22.7926L88.4872 22.461L88.8738 22.1134L89.2603 21.7504L89.6468 21.3729L90.0333 20.9818L90.4198 20.5778L90.8063 20.162L91.1928 19.7352L91.5794 19.2983L91.9659 18.8524L92.3524 18.3984L92.7389 17.9374L93.1254 17.4704L93.5119 16.9983L93.8984 16.5223L94.285 16.0434L94.6715 15.5627L95.058 15.0812L95.4445 14.6L95.831 14.1202L96.2175 13.6428L96.6041 13.1689L96.9906 12.6996L97.3771 12.2359L97.7636 11.7788L98.1501 11.3293L98.5366 10.8885L98.9231 10.4572L99.3097 10.0366L99.6962 9.62747L100.083 9.23075L100.469 8.84732L100.856 8.47804L101.242 8.12373L101.629 7.78517L102.015 7.46311L102.402 7.15828L102.788 6.87134L103.175 6.60294L103.561 6.35367L103.948 6.12408L104.334 5.91468L104.721 5.72594L105.107 5.55828L105.494 5.41207L105.88 5.28763L106.267 5.18525L106.653 5.10514L107.04 5.04748L107.426 5.01241L107.813 5L108.2 5.01028L108.586 5.04323L108.973 5.09876L109.359 5.17677L109.746 5.27708L110.132 5.39946L110.519 5.54364L110.905 5.7093L111.292 5.89607L111.678 6.10355L112.065 6.33127L112.451 6.57871L112.838 6.84534L113.224 7.13057L113.611 7.43375L113.997 7.75422L114.384 8.09126L114.77 8.44412L115.157 8.81203L115.543 9.19417L115.93 9.58968L116.316 9.99769L116.703 10.4173L117.089 10.8476L117.476 11.2875L117.862 11.7362L118.249 12.1927L118.635 12.6558L119.022 13.1246L119.408 13.5981L119.795 14.0752L120.181 14.5549L120.568 15.036L120.954 15.5175L121.341 15.9983L121.728 16.4774L122.114 16.9538L122.501 17.4262L122.887 17.8938L123.274 18.3555L123.66 18.8101L124.047 19.2568L124.433 19.6946L124.82 20.1223L125.206 20.5393L125.593 20.9444L125.979 21.3367L126.366 21.7155L126.752 22.0799L127.139 22.4291L127.525 22.7622L127.912 23.0786L128.298 23.3775L128.685 23.6584L129.071 23.9205L129.458 24.1632L129.844 24.3862L130.231 24.5887L130.617 24.7705L131.004 24.931L131.39 25.07L131.777 25.1871L132.163 25.2821L132.55 25.3547L132.936 25.4049L133.323 25.4324L133.709 25.4373L134.096 25.4194L134.483 25.3789L134.869 25.3159L135.256 25.2304L135.642 25.1227L136.029 24.9931L136.415 24.8417L136.802 24.6689L137.188 24.4752L137.575 24.2609L137.961 24.0266L138.348 23.7727L138.734 23.4998L139.121 23.2085L139.507 22.8995L139.894 22.5734L140.28 22.231L140.667 21.873L141.053 21.5003L141.44 21.1136L141.826 20.7138L142.213 20.3019L142.599 19.8786L142.986 19.445L143.372 19.002L143.759 18.5506L144.145 18.0918L144.532 17.6267L144.918 17.1562L145.305 16.6813L145.691 16.2033L146.078 15.723L146.464 15.2417L146.851 14.7603L147.238 14.2799L147.624 13.8016L148.011 13.3264L148.397 12.8555L148.784 12.3898L149.17 11.9303L149.557 11.4782L149.943 11.0344L150.33 10.5999L150.716 10.1756L151.103 9.76251L151.489 9.36155L151.876 8.9736L152.262 8.59951L152.649 8.24012L153.035 7.89622L153.422 7.56859L153.808 7.25793L154.195 6.96496L154.581 6.69031L154.968 6.4346L155.354 6.19839L155.741 5.98221L156.127 5.78653L156.514 5.6118L156.9 5.4584L157.287 5.32667L157.673 5.21691L158.06 5.12935L158.446 5.0642L158.833 5.02159L159.219 5.00162" stroke="#FD3DAC" stroke-width="8" stroke-miterlimit="10" stroke-linecap="square" stroke-linejoin="round"/>
</svg>
